<?xml version="1.0" encoding="UTF-8" standalone="no"?>
<svg width="24px" height="24px" viewBox="0 0 24 24" version="1.1" xmlns="http://www.w3.org/2000/svg" xmlns:xlink="http://www.w3.org/1999/xlink">
    <!-- Generator: Sketch 3.7.2 (28276) - http://www.bohemiancoding.com/sketch -->
    <title>Fill 1</title>
    <desc>Created with Sketch.</desc>
    <defs></defs>
    <g id="NOTICIA" stroke="none" stroke-width="1" fill="none" fill-rule="evenodd">
        <g id="FICHA-DE-NOTICIAS" transform="translate(-911.000000, -1683.000000)" fill="#1D6585">
            <g id="Group-10" transform="translate(773.000000, 1683.000000)">
                <g id="Group-8" transform="translate(99.000000, 0.000000)">
                    <path d="M51.4603529,18.9261569 L51.4603529,12 L53.7458039,12 L54.106902,9.7047451 L51.4603529,9.7047451 L51.4603529,8.55384314 C51.4603529,7.95494118 51.6567059,7.38329412 52.5163529,7.38329412 L54.2345098,7.38329412 L54.2345098,5.09239216 L51.7952549,5.09239216 C49.7443529,5.09239216 49.1847059,6.44290196 49.1847059,8.31494118 L49.1847059,9.70368627 L47.777451,9.70368627 L47.777451,12 L49.1847059,12 L49.1847059,18.9261569 L51.4603529,18.9261569 Z M40.090902,12 C40.090902,5.97490196 44.974902,1.09090196 51,1.09090196 C57.025098,1.09090196 61.909098,5.97490196 61.909098,12 C61.909098,18.025098 57.025098,22.909098 51,22.909098 C44.974902,22.909098 40.090902,18.025098 40.090902,12 M63,12 C63,5.37270588 57.6272549,0 51,0 C44.3727059,0 39,5.37270588 39,12 C39,18.6272549 44.3727059,24 51,24 C57.6272549,24 63,18.6272549 63,12" id="Fill-1"></path>
                </g>
            </g>
        </g>
    </g>
</svg>