<?xml version="1.0" encoding="UTF-8" standalone="no"?>
<svg width="22px" height="30px" viewBox="0 0 22 30" version="1.1" xmlns="http://www.w3.org/2000/svg" xmlns:xlink="http://www.w3.org/1999/xlink">
    <!-- Generator: Sketch 3.7.2 (28276) - http://www.bohemiancoding.com/sketch -->
    <title>pdf</title>
    <desc>Created with Sketch.</desc>
    <defs></defs>
    <g id="GUIA-DE-ESTUDIOS" stroke="none" stroke-width="1" fill="none" fill-rule="evenodd">
        <g id="GUIA-DE-ESTUDIO-2" transform="translate(-205.000000, -999.000000)" fill="#DB4C92">
            <g id="Group-15" transform="translate(135.000000, 905.000000)">
                <g id="Group-18" transform="translate(70.000000, 94.000000)">
                    <g id="Group-16">
                        <g id="Group-17">
                            <path d="M21.7589079,7.18908065 C21.757165,7.05149945 21.7135377,6.9156067 21.6190391,6.80819968 L15.834583,0.201197527 C15.8334392,0.199345681 15.8312061,0.198746555 15.8300079,0.197058108 C15.7955309,0.158550623 15.7559341,0.126796925 15.7133961,0.0988013842 C15.70076,0.0906314792 15.6875247,0.0832785647 15.6742895,0.0758167182 C15.6375249,0.05588215 15.5990174,0.0393244759 15.5582768,0.0272330166 C15.5479283,0.0240739867 15.5375797,0.0196077719 15.5266865,0.0167755382 C15.4830592,0.00620912778 15.437689,0 15.3922644,0 L1.17646632,0 C0.527884793,0 -5.32907052e-15,0.527939259 -5.32907052e-15,1.17652078 L-5.32907052e-15,28.8234792 C-5.32907052e-15,29.4723331 0.527884793,30 1.17646632,30 L20.5881605,30 C21.2367421,30 21.7646813,29.4723331 21.7646813,28.8234792 L21.7646813,7.25498455 C21.7646269,7.23287134 21.7611955,7.21119386 21.7589079,7.18908065 Z M1.17646632,19.9755266 L1.17646632,1.17652078 L14.8040312,1.17652078 L14.8040312,7.19583444 C14.8040312,7.52050646 15.0671566,7.7840676 15.3922644,7.7840676 L20.5881605,7.7840676 L20.5887597,19.9755266 L1.17646632,19.9755266 Z M16.9174222,12.6434726 C16.8829452,12.6402591 16.0540267,12.5646058 14.7816457,12.5646058 C14.3830088,12.5646058 13.9814852,12.5723944 13.5850814,12.5873181 C11.0723999,10.7017041 9.01434635,8.81461941 7.91255297,7.75705244 C7.93265093,7.64060406 7.94648531,7.54855647 7.9529123,7.47785956 C8.09822768,5.94382373 7.93668142,4.90820658 7.47437373,4.39971169 C7.17165152,4.06741442 6.72704529,3.95684838 6.26343042,4.0834819 C5.97552296,4.15891736 5.44257283,4.43821918 5.27193075,5.0067901 C5.08353274,5.63511026 5.38636388,6.39768919 6.18194923,7.2819997 C6.19458535,7.29539835 6.46457348,7.57829492 6.95514904,8.05765048 C6.63630488,9.57796086 5.80166739,12.8587224 5.39671243,14.4341524 C4.44557209,14.9423749 3.65309131,15.5545731 3.03958591,16.2568582 L2.99938998,16.3028275 L2.97340968,16.3580016 C2.91022908,16.4907353 2.60821493,17.1797306 2.83495703,17.7332145 C2.93849696,17.9848475 3.13250497,18.1686704 3.3960661,18.2651842 L3.46670854,18.2841929 C3.46670854,18.2841929 3.5304338,18.2979728 3.64247043,18.2979728 C4.13320939,18.2979728 5.34453397,18.0400761 5.99425928,15.6457493 L6.15166612,15.0391066 C8.41957727,13.9367686 11.2544798,13.5811598 13.3093199,13.4820861 C14.3662877,14.2659068 15.4180813,14.9859478 16.4371952,15.6235816 L16.470474,15.6428626 C16.5198747,15.6681348 16.9667685,15.8887767 17.4901326,15.8892669 C18.2380601,15.8892669 18.7843545,15.4302817 18.9877306,14.6303935 L18.9980247,14.5757096 C19.0548872,14.1185762 18.9400184,13.7065406 18.6659998,13.3844285 C18.0887687,12.7058907 17.0139905,12.6467406 16.9174222,12.6434726 Z M18.1255333,14.4400347 C17.9899674,14.9381811 17.729184,15.0062636 17.490187,15.0062636 C17.2127371,15.0062636 16.9456356,14.8907956 16.8847426,14.862909 C16.1907909,14.4279433 15.4808261,13.9539798 14.7644344,13.4469011 L14.7816457,13.4469011 C16.0098003,13.4469011 16.8278256,13.5214651 16.8599606,13.5237526 C17.0650796,13.5313779 17.7142058,13.6272381 17.9939434,13.956104 C18.103638,14.0850251 18.1456313,14.2391095 18.1255333,14.4400347 Z M6.43320104,13.9470082 L6.44643629,13.8964637 L6.44469337,13.8970628 C6.82840658,12.3941816 7.38178148,10.1935904 7.69997204,8.78003348 L7.71146437,8.79098115 L7.71260816,8.78422736 C8.74201619,9.75361382 10.3204418,11.1715281 12.2103587,12.6462504 L12.189117,12.6471218 L12.2203805,12.6707056 C10.4399948,12.8210863 8.3135319,13.1720655 6.43320104,13.9470082 Z M6.8291691,6.68270994 C6.06283202,5.82966293 6.07432435,5.40673418 6.11555514,5.26435997 C6.18320195,5.02639787 6.48853853,4.93647445 6.4911529,4.93565746 C6.64496498,4.89382755 6.73831976,4.90205192 6.82143493,4.99328252 C7.00939721,5.19976325 7.17083453,5.82290914 7.1070548,6.96593331 C6.92611864,6.78412569 6.8291691,6.68270994 6.8291691,6.68270994 Z M3.66077102,17.4151873 C3.65619587,17.4097407 3.65401723,17.4046209 3.65172966,17.3988475 C3.60292809,17.2813643 3.66147908,16.996398 3.74764434,16.7876297 C4.11757764,16.3740146 4.56163921,15.9943319 5.07405565,15.6525031 C4.57503785,17.2678567 3.84933243,17.4075076 3.66077102,17.4151873 Z M19.824111,22.7245907 L17.0816918,22.7245907 L17.0816918,24.354868 L19.6437195,24.354868 L19.6437195,25.6680441 L17.0816918,25.6680441 L17.0816918,28.5368245 L15.4623622,28.5368245 L15.4623622,21.4016107 L19.824111,21.4016107 L19.824111,22.7245907 Z M13.2162919,27.6900955 C12.4654776,28.3144941 11.3220722,28.6108983 9.92501843,28.6108983 C9.08847462,28.6108983 8.49593865,28.5580662 8.09294447,28.5052342 L8.09294447,21.4963816 C8.68591617,21.4016107 9.45911598,21.3481796 10.2740912,21.3481796 C11.6284981,21.3481796 12.5074165,21.5917517 13.1959216,22.1104317 C13.9372043,22.6610288 14.4031067,23.5396749 14.4031067,24.7994198 C14.4025076,26.1654823 13.9050149,27.1075813 13.2162919,27.6900955 Z M6.40852793,25.2653222 C5.85820313,25.7840022 5.04295554,26.0172803 4.08996336,26.0172803 C3.87852622,26.0172803 3.68740491,26.0063871 3.5397475,25.98569 L3.5397475,28.5368245 L1.94116942,28.5368245 L1.94116942,21.4963816 C2.43849877,21.4119593 3.13762477,21.3481796 4.12237065,21.3481796 C5.11730168,21.3481796 5.82672176,21.5388651 6.30297276,21.9197461 C6.75847219,22.2798755 7.06468023,22.8727383 7.06468023,23.5712652 C7.06468023,24.2703367 6.83232813,24.8631995 6.40852793,25.2653222 Z M4.206793,22.5659856 C3.87879855,22.5659856 3.6564682,22.5975759 3.53969303,22.6291662 L3.53969303,24.7362392 C3.67754656,24.7678295 3.84704485,24.7787227 4.07907016,24.7787227 C4.93729144,24.7787227 5.46637449,24.344465 5.46637449,23.614021 C5.46642895,22.9577598 5.01092952,22.5659856 4.206793,22.5659856 Z M10.4434261,22.586955 C10.0832423,22.586955 9.85061783,22.6188177 9.71287323,22.650408 L9.71287323,27.3192363 C9.85089016,27.3511534 10.0732205,27.3511534 10.2740912,27.3511534 C11.7347613,27.3614475 12.6877535,26.5572565 12.6877535,24.8525786 C12.698102,23.370231 11.8301858,22.586955 10.4434261,22.586955 Z" id="pdf"></path>
                        </g>
                    </g>
                </g>
            </g>
        </g>
    </g>
</svg>