<?xml version="1.0" encoding="UTF-8" standalone="no"?>
<svg width="22px" height="30px" viewBox="0 0 22 30" version="1.1" xmlns="http://www.w3.org/2000/svg" xmlns:xlink="http://www.w3.org/1999/xlink">
    <!-- Generator: Sketch 3.7.2 (28276) - http://www.bohemiancoding.com/sketch -->
    <title>doc copy</title>
    <desc>Created with Sketch.</desc>
    <defs></defs>
    <g id="GUIA-DE-ESTUDIOS" stroke="none" stroke-width="1" fill="none" fill-rule="evenodd">
        <g id="GUIA-DE-ESTUDIO-2" transform="translate(-205.000000, -1119.000000)" fill="#DB4C92">
            <g id="Group-15" transform="translate(135.000000, 905.000000)">
                <g id="Group-18" transform="translate(70.000000, 94.000000)">
                    <g id="Group-16">
                        <g id="Group-14" transform="translate(0.000000, 120.000000)">
                            <path d="M21.7589079,7.18908065 C21.757165,7.05149945 21.7135377,6.9156067 21.6190391,6.80819968 L15.834583,0.201197527 C15.8334392,0.199345681 15.8316963,0.198746555 15.8300079,0.197058108 C15.7955309,0.158550623 15.7559341,0.126796925 15.7133961,0.0988013842 C15.70076,0.0906314792 15.6880694,0.0832785647 15.6748886,0.0758167182 C15.6375249,0.05588215 15.5990174,0.0393244759 15.5588215,0.0272330166 C15.5479283,0.0240739867 15.5381789,0.0196077719 15.5272312,0.0167755382 C15.4830592,0.00620912778 15.4382337,-3.55271368e-15 15.3922644,-3.55271368e-15 L1.17646632,-3.55271368e-15 C0.527884793,-3.55271368e-15 0,0.527939259 0,1.17652078 L0,28.8234792 C0,29.4723331 0.527884793,30 1.17646632,30 L20.5881605,30 C21.2372867,30 21.7646813,29.4723331 21.7646813,28.8234792 L21.7646813,7.25498455 C21.7646269,7.23287134 21.7611955,7.21119386 21.7589079,7.18908065 Z M1.17646632,19.9755266 L1.17646632,1.17652078 L14.8040312,1.17652078 L14.8040312,7.19583444 C14.8040312,7.52050646 15.0671566,7.7840676 15.3922644,7.7840676 L20.5881605,7.7840676 L20.5887597,19.9755266 L1.17646632,19.9755266 Z M18.7465006,26.9295318 C19.1985686,26.9295318 19.7000919,26.8307305 19.9947531,26.7131928 L20.2210595,27.8827964 C19.9458971,28.0209767 19.3266727,28.1679805 18.5206844,28.1679805 C16.2303877,28.1679805 15.0510347,26.7424955 15.0510347,24.8554653 C15.0510347,22.595016 16.6629569,21.3367417 18.6677427,21.3367417 C19.4444283,21.3367417 20.0343499,21.4938762 20.2997629,21.6317297 L19.9946986,22.8208322 C19.6905058,22.6932727 19.2674137,22.574918 18.7369145,22.574918 C17.5478121,22.574918 16.6232512,23.2927259 16.6232512,24.7670125 C16.6233601,26.0936961 17.4097407,26.9295318 18.7465006,26.9295318 Z M11.1183692,28.1777844 C9.15263561,28.1777844 8.00258532,26.6934216 8.00258532,24.8060646 C8.00258532,22.8205054 9.27055457,21.3364149 11.2263754,21.3364149 C13.2610085,21.3364149 14.3720611,22.8601566 14.3720611,24.6880367 C14.3721156,26.8605778 13.0548546,28.1777844 11.1183692,28.1777844 Z M6.22296215,27.2827985 C5.5250344,27.8629707 4.46343695,28.1381331 3.16562031,28.1381331 C2.38882575,28.1381331 1.83850095,28.0887324 1.46524522,28.0398764 L1.46524522,21.5331462 C2.01557002,21.4446934 2.73321448,21.3952927 3.49029234,21.3952927 C4.74818537,21.3952927 5.56403208,21.6216535 6.20286419,22.1030243 C6.89120591,22.614297 7.32372068,23.4299803 7.32372068,24.5995839 C7.32350282,25.8676621 6.86179426,26.7422232 6.22296215,27.2827985 Z M15.7656835,16.7227062 L5.11643022,16.7227062 C4.90118046,16.7227062 4.72639896,16.8973243 4.72639896,17.1127374 C4.72639896,17.3278783 4.90118046,17.502224 5.11643022,17.502224 L15.7656835,17.502224 C15.9810967,17.502224 16.1557692,17.3278783 16.1557692,17.1127374 C16.1557692,16.8973243 15.9814235,16.7227062 15.7656835,16.7227062 Z M15.7656835,13.5538179 L5.11643022,13.5538179 C4.90118046,13.5538179 4.72639896,13.7281637 4.72639896,13.9435768 C4.72639896,14.1588266 4.90118046,14.3331724 5.11643022,14.3331724 L15.7656835,14.3331724 C15.9810967,14.3331724 16.1557692,14.1588266 16.1557692,13.9435768 C16.1557692,13.7281637 15.9814235,13.5538179 15.7656835,13.5538179 Z M6.22944361,8.90149273 L6.59033555,7.4343412 C6.68265547,7.07818781 6.74311277,6.7773719 6.79888599,6.44414871 L6.80792735,6.44414871 C6.84469192,6.78178365 6.90024728,7.07818781 6.97884176,7.4343412 L7.30324146,8.90149273 L7.91445928,8.90149273 L8.75143881,5.78238641 L8.17295507,5.78238641 L7.84910004,7.19381919 C7.76582147,7.57350191 7.69136641,7.92938297 7.63613785,8.27235558 L7.62649736,8.27235558 C7.58052803,7.93444831 7.51560452,7.58733628 7.4370645,7.21707619 L7.12698937,5.78271321 L6.53004165,5.78271321 L6.19267904,7.19414599 C6.1040628,7.58739075 6.01560997,7.95803211 5.96533782,8.28618996 L5.95673218,8.28618996 C5.90586091,7.97627823 5.83151477,7.57802259 5.75264796,7.19861221 L5.4564072,5.78271321 L4.85009132,5.78271321 L5.61381404,8.90181953 L6.22944361,8.90181953 L6.22944361,8.90149273 Z M15.7656835,10.4587856 L5.11643022,10.4587856 C4.90118046,10.4587856 4.72639896,10.6331313 4.72639896,10.8483811 C4.72639896,11.0637942 4.90118046,11.2378677 5.11643022,11.2378677 L15.7656835,11.2378677 C15.9810967,11.2378677 16.1557692,11.0637942 16.1557692,10.8483811 C16.1557692,10.6331858 15.9814235,10.4587856 15.7656835,10.4587856 Z M9.39119684,8.12083108 L13.6717913,8.12083108 C13.8866598,8.12083108 14.0612779,7.94648531 14.0612779,7.73123554 C14.0612779,7.51598578 13.8866598,7.34147661 13.6717913,7.34147661 L9.39119684,7.34147661 C9.17589261,7.34147661 9.00198256,7.51598578 9.00198256,7.73123554 C9.00171023,7.94648531 9.17545688,8.12083108 9.39119684,8.12083108 Z M3.64759024,22.545343 C3.31322326,22.545343 3.09666632,22.5746457 2.96916133,22.6039484 L2.96916133,26.9386821 C3.09666632,26.968584 3.30347384,26.968584 3.49002001,26.968584 C4.8461153,26.9783879 5.73080708,26.231005 5.73080708,24.6489846 C5.74115562,23.2725734 4.9349494,22.545343 3.64759024,22.545343 Z M11.1873232,22.5257897 C10.1752899,22.5257897 9.58520485,23.4891304 9.58520485,24.7764351 C9.58520485,26.0740883 10.1946798,26.9880284 11.1971271,26.9880284 C12.2098685,26.9880284 12.789496,26.0246876 12.789496,24.7373829 C12.789496,23.5477358 12.2196179,22.5257897 11.1873232,22.5257897 Z" id="doc-copy"></path>
                        </g>
                    </g>
                </g>
            </g>
        </g>
    </g>
</svg>