<?xml version="1.0" encoding="UTF-8" standalone="no"?>
<svg width="93px" height="100px" viewBox="0 0 93 100" version="1.1" xmlns="http://www.w3.org/2000/svg" xmlns:xlink="http://www.w3.org/1999/xlink">
    <!-- Generator: Sketch 3.7.2 (28276) - http://www.bohemiancoding.com/sketch -->
    <title>noticias</title>
    <desc>Created with Sketch.</desc>
    <defs></defs>
    <g id="NOTICIA" stroke="none" stroke-width="1" fill="none" fill-rule="evenodd">
        <g id="NOTICIAS" transform="translate(-650.000000, -220.000000)" fill="#FFFFFF">
            <path d="M741.218523,232.459676 L724.270904,232.459676 L724.270904,227.921902 C724.270904,227.07395 723.5813,226.385757 722.73161,226.385757 L714.602602,226.385757 L714.602602,221.536146 C714.602602,220.688193 713.912999,220 713.063309,220 L651.539293,220 C650.689603,220 650,220.688193 650,221.536146 L650,306.878245 C650,307.131709 650.076965,307.362131 650.186254,307.572583 C651.257603,314.59584 657.331654,320 664.663308,320 L725.97798,320 C726.025698,320 726.06572,319.976958 726.113438,319.972349 C726.139606,319.973886 726.161156,319.987711 726.187324,319.987711 C735.324569,319.987711 742.757817,312.568128 742.757817,303.449568 L742.757817,233.995822 C742.757817,233.147869 742.068213,232.459676 741.218523,232.459676 Z M739.680769,303.451104 C739.680769,310.68635 733.926891,316.591293 726.747627,316.887769 C726.573687,316.818643 726.385893,316.774094 726.187324,316.774094 C719.800796,316.774094 714.604142,311.588067 714.604142,305.2146 L714.604142,234.671726 C714.604142,234.668653 714.602602,234.667117 714.602602,234.664045 L714.602602,229.458048 L721.192317,229.458048 L721.192317,303.890442 C721.192317,307.279179 723.953809,310.035024 727.34949,310.035024 C730.745172,310.035024 733.506664,307.279179 733.506664,303.891978 L733.506664,241.747212 C733.506664,240.89926 732.81706,240.211066 731.967371,240.211066 L724.270904,240.211066 L724.270904,235.531967 L739.680769,235.531967 L739.680769,303.451104 Z M653.080126,305.368214 L653.080126,234.82534 C653.080126,234.822268 653.078587,234.820732 653.078587,234.81766 L653.078587,223.072291 L711.524016,223.072291 L711.524016,306.878245 C711.524016,307.151679 711.614834,307.395926 711.741056,307.617131 C712.373706,311.414483 714.470223,314.714123 717.437981,316.927709 L664.663308,316.927709 C658.27678,316.927709 653.080126,311.741682 653.080126,305.368214 Z M724.270904,243.283357 L730.428077,243.283357 L730.428077,303.891978 C730.428077,305.586347 729.047331,306.964269 727.34949,306.964269 C725.65165,306.964269 724.270904,305.586347 724.270904,303.891978 L724.270904,243.283357 Z M705.7863,276.273618 L660.504907,276.273618 C659.655217,276.273618 658.965614,275.585425 658.965614,274.737473 C658.965614,273.88952 659.655217,273.201327 660.504907,273.201327 L705.7863,273.201327 C706.63599,273.201327 707.325593,273.88952 707.325593,274.737473 C707.325593,275.585425 706.63599,276.273618 705.7863,276.273618 Z M705.7863,270 L660.504907,270 C659.655217,270 658.965614,269.311807 658.965614,268.463854 C658.965614,267.615902 659.655217,266.927709 660.504907,266.927709 L705.7863,266.927709 C706.63599,266.927709 707.325593,267.615902 707.325593,268.463854 C707.325593,269.311807 706.63599,270 705.7863,270 Z M705.7863,264.111954 L660.504907,264.111954 C659.655217,264.111954 658.965614,263.423761 658.965614,262.575809 C658.965614,261.727856 659.655217,261.039663 660.504907,261.039663 L705.7863,261.039663 C706.63599,261.039663 707.325593,261.727856 707.325593,262.575809 C707.325593,263.423761 706.63599,264.111954 705.7863,264.111954 Z M705.7863,258.223909 L660.504907,258.223909 C659.655217,258.223909 658.965614,257.535715 658.965614,256.687763 C658.965614,255.839811 659.655217,255.151618 660.504907,255.151618 L705.7863,255.151618 C706.63599,255.151618 707.325593,255.839811 707.325593,256.687763 C707.325593,257.535715 706.63599,258.223909 705.7863,258.223909 Z M678.07902,300.987127 L660.504907,300.987127 C659.718329,300.987127 659.081061,300.351163 659.081061,299.566193 C659.081061,298.781222 659.718329,298.145258 660.504907,298.145258 L678.07902,298.145258 C678.865598,298.145258 679.502866,298.781222 679.502866,299.566193 C679.502866,300.351163 678.865598,300.987127 678.07902,300.987127 Z M678.07902,294.970045 L660.504907,294.970045 C659.718329,294.970045 659.081061,294.334081 659.081061,293.549111 C659.081061,292.76414 659.718329,292.128176 660.504907,292.128176 L678.07902,292.128176 C678.865598,292.128176 679.502866,292.76414 679.502866,293.549111 C679.502866,294.334081 678.865598,294.970045 678.07902,294.970045 Z M678.07902,288.441427 L660.504907,288.441427 C659.718329,288.441427 659.081061,287.805463 659.081061,287.020492 C659.081061,286.235522 659.718329,285.599558 660.504907,285.599558 L678.07902,285.599558 C678.865598,285.599558 679.502866,286.235522 679.502866,287.020492 C679.502866,287.805463 678.865598,288.441427 678.07902,288.441427 Z M678.07902,282.425881 L660.504907,282.425881 C659.718329,282.425881 659.081061,281.789917 659.081061,281.004946 C659.081061,280.219976 659.718329,279.584012 660.504907,279.584012 L678.07902,279.584012 C678.865598,279.584012 679.502866,280.219976 679.502866,281.004946 C679.502866,281.789917 678.865598,282.425881 678.07902,282.425881 Z M705.7863,252.093152 L686.971517,252.093152 C686.184938,252.093152 685.547671,251.457188 685.547671,250.672217 C685.547671,249.887247 686.184938,249.251283 686.971517,249.251283 L705.7863,249.251283 C706.572879,249.251283 707.210146,249.887247 707.210146,250.672217 C707.210146,251.457188 706.572879,252.093152 705.7863,252.093152 Z M705.7863,246.07607 L686.971517,246.07607 C686.184938,246.07607 685.547671,245.440106 685.547671,244.655135 C685.547671,243.870165 686.184938,243.234201 686.971517,243.234201 L705.7863,243.234201 C706.572879,243.234201 707.210146,243.870165 707.210146,244.655135 C707.210146,245.440106 706.572879,246.07607 705.7863,246.07607 Z M705.7863,239.547452 L686.971517,239.547452 C686.184938,239.547452 685.547671,238.911487 685.547671,238.126517 C685.547671,237.341547 686.184938,236.705582 686.971517,236.705582 L705.7863,236.705582 C706.572879,236.705582 707.210146,237.341547 707.210146,238.126517 C707.210146,238.911487 706.572879,239.547452 705.7863,239.547452 Z M705.7863,233.53037 L686.971517,233.53037 C686.184938,233.53037 685.547671,232.894405 685.547671,232.109435 C685.547671,231.324465 686.184938,230.6885 686.971517,230.6885 L705.7863,230.6885 C706.572879,230.6885 707.210146,231.324465 707.210146,232.109435 C707.210146,232.894405 706.572879,233.53037 705.7863,233.53037 Z M705.787069,300.979446 L687.223192,300.979446 C686.373502,300.979446 685.683898,300.291253 685.683898,299.443301 L685.683898,281.126302 C685.683898,280.27835 686.373502,279.590156 687.223192,279.590156 L705.788609,279.590156 C706.638299,279.590156 707.327902,280.27835 707.327902,281.126302 L707.327902,299.443301 C707.326363,300.292789 706.636759,300.979446 705.787069,300.979446 Z M688.762485,297.907155 L704.249315,297.907155 L704.249315,282.662447 L688.762485,282.662447 L688.762485,297.907155 Z M679.172687,251.962579 L660.034653,251.962579 C659.184963,251.962579 658.49536,251.274386 658.49536,250.426434 L658.49536,232.109435 C658.49536,231.261483 659.184963,230.57329 660.034653,230.57329 L679.172687,230.57329 C680.023917,230.57329 680.711981,231.261483 680.711981,232.109435 L680.711981,250.426434 C680.711981,251.275922 680.025456,251.962579 679.172687,251.962579 Z M661.573947,248.890288 L677.634933,248.890288 L677.634933,233.645581 L661.573947,233.645581 L661.573947,248.890288 Z" id="noticias"></path>
        </g>
    </g>
</svg>