<?xml version="1.0" encoding="UTF-8" standalone="no"?>
<svg width="16px" height="16px" viewBox="0 0 16 16" version="1.1" xmlns="http://www.w3.org/2000/svg" xmlns:xlink="http://www.w3.org/1999/xlink">
    <!-- Generator: Sketch 3.7.2 (28276) - http://www.bohemiancoding.com/sketch -->
    <title>Fill 1</title>
    <desc>Created with Sketch.</desc>
    <defs></defs>
    <g id="ACADEMIAS" stroke="none" stroke-width="1" fill="none" fill-rule="evenodd">
        <g id="FICHA-ACADEMIA" transform="translate(-765.000000, -995.000000)" fill="#DB4C92">
            <g id="Group-9-Copy" transform="translate(735.000000, 715.000000)">
                <g id="Group-10-Copy" transform="translate(30.000000, 228.000000)">
                    <g id="Group-13" transform="translate(0.000000, 52.000000)">
                        <path d="M8.49894059,7.92121165 L8.49894059,3.38724528 C8.49894059,3.11593293 8.26254937,2.89709383 7.99121086,2.89709383 C7.73745063,2.89709383 7.50982239,3.11593293 7.50982239,3.38724528 L7.50982239,7.99121086 C7.50982239,8 7.52737451,8.03510424 7.52737451,8.06126239 C7.50982239,8.2188391 7.55371577,8.35012687 7.65866227,8.45525648 L10.2758639,11.072275 C10.4509927,11.2474038 10.7747783,11.2474038 10.9497763,11.072275 C11.1510372,10.870988 11.1378011,10.5789322 10.9497763,10.3895734 L8.49894059,7.92121165 Z M14.0920244,11.5275053 C13.4636794,12.6050904 12.6028669,13.4599649 11.5187162,14.0920244 C10.4411311,14.7203694 9.26043056,15.0372492 7.99142013,15.0372492 C7.03743232,15.0372492 6.12712862,14.8535143 5.26050904,14.4770724 C4.39391561,14.1008135 3.64568783,13.6061629 3.01977556,12.9804337 C2.3938633,12.3545214 1.89568129,11.5989955 1.52316304,10.7309111 C1.15174344,9.86599179 0.971749196,8.94540794 0.971749196,7.99123702 C0.971749196,6.72204347 1.28358053,5.54733318 1.90839415,4.47273013 C2.53543122,3.39420335 3.3964268,2.53841325 4.47291323,1.90818489 C5.54921656,1.27798268 6.72225274,0.962776949 7.99123702,0.962776949 C9.26043056,0.962776949 10.4409218,1.27983991 11.5185331,1.90818489 C12.6026838,2.54027048 13.4616391,3.39603442 14.0918413,4.47270397 C14.7220435,5.54919041 15.0370661,6.72204347 15.0370661,7.99121086 C15.0370661,9.26043056 14.72411,10.4431453 14.0920244,11.5275053 M15.3697978,4.88406707 C14.5257789,2.91632007 13.0915274,1.48523372 11.1073531,0.638991342 C10.1156452,0.216040179 9.07666954,0 7.99123702,0 C6.9059876,0 5.87467629,0.213999843 4.88406707,0.638991342 C2.91632007,1.48298412 1.47571216,2.91315493 0.630202203,4.88406707 C0.206518612,5.871485 0,6.90596144 0,7.99121086 C0,9.07666954 0.206518612,10.1197259 0.630202203,11.1073531 C1.47571216,13.0782652 2.91650318,14.5170159 4.88406707,15.3612179 C5.8748594,15.7862094 6.90596144,16 7.99123702,16 C9.0765126,16 10.1156452,15.7839598 11.1071961,15.3612179 C13.0913704,14.5149494 14.5256219,13.0749169 15.369824,11.1073531 C15.7947893,10.1165607 16.0087891,9.07666954 16.0087891,7.99121086 C16.0087891,6.90596144 15.7949724,5.87483324 15.3697978,4.88406707" id="Fill-1"></path>
                    </g>
                </g>
            </g>
        </g>
    </g>
</svg>