<?xml version="1.0" encoding="UTF-8" standalone="no"?>
<svg width="24px" height="24px" viewBox="0 0 24 24" version="1.1" xmlns="http://www.w3.org/2000/svg" xmlns:xlink="http://www.w3.org/1999/xlink">
    <!-- Generator: Sketch 3.7.2 (28276) - http://www.bohemiancoding.com/sketch -->
    <title>Fill 3</title>
    <desc>Created with Sketch.</desc>
    <defs></defs>
    <g id="NOTICIA" stroke="none" stroke-width="1" fill="none" fill-rule="evenodd">
        <g id="FICHA-DE-NOTICIAS" transform="translate(-872.000000, -1683.000000)" fill="#1D6585">
            <g id="Group-10" transform="translate(773.000000, 1683.000000)">
                <g id="Group-8" transform="translate(99.000000, 0.000000)">
                    <path d="M17.1458431,9.61419608 C17.1458431,9.49309804 17.1436471,9.37309804 17.1381961,9.25419608 C17.6563922,8.868 18.1058431,8.3847451 18.4614902,7.83164706 C17.9858431,8.0454902 17.4752941,8.18839216 16.938549,8.24835294 C17.4861961,7.9112549 17.9061961,7.37235294 18.1047451,6.72545098 C17.592,7.03635294 17.0247451,7.25890196 16.421451,7.37454902 C15.9381961,6.82470588 15.2487451,6.47454902 14.4861569,6.46145098 C13.0221569,6.43745098 11.8352549,7.67454902 11.8352549,9.22470588 C11.8352549,9.44505882 11.8581569,9.65890196 11.9039608,9.86505882 C9.6992549,9.7232549 7.74545098,8.57560784 6.4385098,6.84545098 C6.2105098,7.26 6.07960784,7.74435294 6.07960784,8.26364706 C6.07960784,9.2454902 6.54760784,10.1181961 7.25886275,10.633098 C6.82360784,10.6134902 6.41560784,10.4814902 6.05780392,10.265451 L6.05780392,10.301451 C6.05780392,11.6738431 6.972,12.8236471 8.18505882,13.092 C7.9625098,13.1552549 7.72796078,13.188 7.48686275,13.1869412 C7.31560784,13.1858431 7.14976471,13.1672941 6.98831373,13.1323529 C7.32541176,14.257098 8.30505882,15.078549 9.46466667,15.1058039 C8.55701961,15.8585098 7.41376471,16.3079608 6.17231373,16.3047059 C5.95847059,16.3047059 5.74686275,16.290549 5.53956863,16.2643529 C6.71341176,17.069451 8.10647059,17.5385098 9.60427451,17.5385098 C14.4796078,17.5396471 17.1458431,13.296 17.1458431,9.61419608 M1.09090196,12 C1.09090196,5.97490196 5.97490196,1.09090196 12,1.09090196 C18.025098,1.09090196 22.909098,5.97490196 22.909098,12 C22.909098,18.025098 18.025098,22.909098 12,22.909098 C5.97490196,22.909098 1.09090196,18.025098 1.09090196,12 M24,12 C24,5.37270588 18.6272549,0 12,0 C5.37270588,0 0,5.37270588 0,12 C0,18.6272549 5.37270588,24 12,24 C18.6272549,24 24,18.6272549 24,12" id="Fill-3"></path>
                </g>
            </g>
        </g>
    </g>
</svg>