<?xml version="1.0" encoding="UTF-8" standalone="no"?>
<svg width="65px" height="106px" viewBox="0 0 65 106" version="1.1" xmlns="http://www.w3.org/2000/svg" xmlns:xlink="http://www.w3.org/1999/xlink">
    <!-- Generator: Sketch 3.7.2 (28276) - http://www.bohemiancoding.com/sketch -->
    <title>Group 7</title>
    <desc>Created with Sketch.</desc>
    <defs>
        <rect id="path-1" x="0.546904418" y="0" width="57.7780801" height="100"></rect>
        <mask id="mask-2" maskContentUnits="userSpaceOnUse" maskUnits="objectBoundingBox" x="-3" y="-3" width="63.7780801" height="106">
            <rect x="-2.45309558" y="-3" width="63.7780801" height="106" fill="white"></rect>
            <use xlink:href="#path-1" fill="black"></use>
        </mask>
        <polygon id="path-3" points="0.729439871 62.9844716 16.8355187 43.9843221 31.4566378 55.8801915 46.297587 42.6120532 58.2496236 53.7269567 58.2496236 99.9613687 0.436409524 99.9613687"></polygon>
        <mask id="mask-4" maskContentUnits="userSpaceOnUse" maskUnits="objectBoundingBox" x="-3" y="-3" width="63.8132141" height="63.3493154">
            <rect x="-2.56359048" y="39.6120532" width="63.8132141" height="63.3493154" fill="white"></rect>
            <use xlink:href="#path-3" fill="black"></use>
        </mask>
        <path d="M12.3651481,78.2908619 C12.3651481,78.2908619 17.6359356,65.9012693 17.6359356,65.9012694 C24.3625717,60.2109847 30.6881404,65.1377038 30.6881404,65.1377038 L30.688141,78.7649322 C30.688141,78.7649322 22.8329937,72.0480571 12.3651481,78.2908619 Z" id="path-5"></path>
        <mask id="mask-6" maskContentUnits="userSpaceOnUse" maskUnits="objectBoundingBox" x="0" y="0" width="18.3229929" height="15.6070375" fill="white">
            <use xlink:href="#path-5"></use>
        </mask>
        <path d="M30.7490827,78.2908619 C30.7490827,78.2908619 36.0198702,65.9012693 36.0198702,65.9012694 C42.7465063,60.2109847 49.072075,65.1377038 49.072075,65.1377038 L49.0720756,78.7649322 C49.0720756,78.7649322 41.2169283,72.0480571 30.7490827,78.2908619 Z" id="path-7"></path>
        <mask id="mask-8" maskContentUnits="userSpaceOnUse" maskUnits="objectBoundingBox" x="0" y="0" width="18.3229929" height="15.6070375" fill="white">
            <use xlink:href="#path-7"></use>
        </mask>
    </defs>
    <g id="HOME" stroke="none" stroke-width="1" fill="none" fill-rule="evenodd">
        <g transform="translate(-742.000000, -2673.000000)" id="Group-47">
            <g transform="translate(0.000000, 2623.000000)">
                <g id="Group-7" transform="translate(745.000000, 53.000000)">
                    <g id="Group-5">
                        <use id="Rectangle-113" stroke="#1D6585" mask="url(#mask-2)" stroke-width="6" xlink:href="#path-1"></use>
                        <g id="Group-4" transform="translate(3.173181, 3.394938)">
                            <ellipse id="Oval-1" fill="#1D6585" cx="38.0810074" cy="25.5524307" rx="10.5051055" ry="10.5263158"></ellipse>
                            <path d="M25.6061946,26.8682202 L0.656569092,26.8682202" id="Line" stroke="#1D6585" stroke-width="2" stroke-linecap="round"></path>
                            <path d="M25.452609,23.5604931 L0.810154738,19.6496315" id="Line-Copy" stroke="#1D6585" stroke-width="2" stroke-linecap="round"></path>
                            <path d="M26.2396872,20.4115063 L3.93941455,12.394536" id="Line-Copy-2" stroke="#1D6585" stroke-width="2" stroke-linecap="round"></path>
                            <path d="M31.5153164,13.7103254 L19.6970728,0.552430695" id="Line-Copy-3" stroke="#1D6585" stroke-width="2" stroke-linecap="round"></path>
                            <path d="M28.5504058,17.1553161 L10.5051054,4.49979914" id="Line-Copy-5" stroke="#1D6585" stroke-width="2" stroke-linecap="round"></path>
                            <path d="M35.454731,12.394536 L29.5456092,0.552430695" id="Line-Copy-4" stroke="#1D6585" stroke-width="2" stroke-linecap="round"></path>
                            <path d="M39.3941455,12.394536 L38.0810074,3.18400964" id="Line-Copy-6" stroke="#1D6585" stroke-width="2" stroke-linecap="round"></path>
                            <path d="M43.3335601,12.394536 L43.3335601,5.81558859" id="Line-Copy-7" stroke="#1D6585" stroke-width="2" stroke-linecap="round"></path>
                            <path d="M47.2729746,15.0261149 L48.5861128,13.7103254" id="Line-Copy-8" stroke="#1D6585" stroke-width="2" stroke-linecap="round"></path>
                            <path d="M49.899251,18.9734833 L51.2123892,17.6576939" id="Line-Copy-9" stroke="#1D6585" stroke-width="2" stroke-linecap="round"></path>
                            <path d="M51.2123892,22.9208517 L52.5255274,22.9208517" id="Line-Copy-10" stroke="#1D6585" stroke-width="2" stroke-linecap="round"></path>
                            <path d="M51.2123892,26.8682202 L52.5255274,26.8682202" id="Line-Copy-11" stroke="#1D6585" stroke-width="2" stroke-linecap="round"></path>
                        </g>
                        <use id="Path-14" stroke="#1D6585" mask="url(#mask-4)" stroke-width="6" xlink:href="#path-3"></use>
                    </g>
                    <polygon id="Path-15" fill="#1D6585" points="7.11259534 56.8473824 12.5335877 52.4048349 12.8786612 57.7772852 15.5332942 51.5174821 19.0157737 57.524464 18.7857247 50.7904146 22.571638 56.4479084 22.0249625 51.3340628 25.3652074 52.2086093 25.2547179 49.5581179 16.1071798 42.1052632 8.06247491 51.3865273"></polygon>
                    <polygon id="Path-16" fill="#1D6585" points="53.8031777 48.023156 50.5609376 48.413798 50.789533 53.5448475 47.5787935 48.5887037 45.8332609 53.4582634 45.18909 49.3922853 41.1090521 53.8228433 42.4355413 49.0407364 36.0016354 49.9636245 46.1979732 40.7894737"></polygon>
                    <g id="Group-6" transform="translate(17.070796, 65.789474)" fill="#1D6585">
                        <ellipse id="Oval-2" cx="6.45602625" cy="3.28947368" rx="3.28284546" ry="3.28947368"></ellipse>
                        <ellipse id="Oval-2-Copy" cx="22.2136845" cy="4.60526316" rx="3.28284546" ry="3.28947368"></ellipse>
                        <path d="M1.11786917,7.59196454 L3.09732506,6.42916805 L5.78682926,7.17950856 L8.35519129,6.74059175 C8.35519129,6.74059175 9.48258909,7.27628506 9.4825892,7.7196427 C9.48258931,8.16300035 7.96591122,9.3879707 7.96591122,9.3879707 C7.96591122,9.3879707 7.3088626,10.274686 7.83202695,11.588106 C8.35519129,12.901526 9.74777222,13.8128513 9.35683032,15.5117115 C8.96588841,17.2105716 7.7910302,17.3439852 7.79103066,18.216268 C7.79103112,19.0885509 9.03606206,19.8884819 9.03606206,19.8884819 L4.12980364,26.5777074 L2.56991336,22.2932723 C2.56991336,22.2932723 4.75545878,20.7367096 4.44263116,19.1262988 C4.12980355,17.515888 0.328782961,16.1343738 0.328782961,16.1343738 L1.97085048,14.9695419 C1.97085048,14.9695419 0.927845822,13.9242463 0.927845832,13.3841122 C0.927845842,12.843978 2.8227238,11.8460529 2.8227238,11.8460529 C2.8227238,11.8460529 0.398956786,10.9424985 0.398956787,10.0191449 C0.398956788,9.09579139 2.77766481,8.57009029 2.77766481,8.57009029 L1.11786917,7.59196454 Z" id="Path-17"></path>
                        <path d="M17.0936488,9.05753333 L19.0731047,7.89473684 L21.7626089,8.64507735 L24.330971,8.20616054 C24.330971,8.20616054 25.4583688,8.74185385 25.4583689,9.18521149 C25.458369,9.62856914 23.9416909,10.8535395 23.9416909,10.8535395 C23.9416909,10.8535395 23.2846423,11.7402548 23.8078066,13.0536748 C24.330971,14.3670948 25.7235519,15.2784201 25.33261,16.9772803 C24.9416681,18.6761404 23.7668099,18.809554 23.7668103,19.6818368 C23.7668108,20.5541197 25.0118417,21.3540507 25.0118417,21.3540507 L20.1055833,28.0432762 L18.545693,23.7588411 C18.545693,23.7588411 20.7312385,22.2022784 20.4184108,20.5918676 C20.1055832,18.9814568 16.3045626,17.5999426 16.3045626,17.5999426 L17.9466302,16.4351107 C17.9466302,16.4351107 16.9036255,15.3898151 16.9036255,14.849681 C16.9036255,14.3095468 18.7985035,13.3116217 18.7985035,13.3116217 C18.7985035,13.3116217 16.3747365,12.4080672 16.3747365,11.4847137 C16.3747365,10.5613602 18.7534445,10.0356591 18.7534445,10.0356591 L17.0936488,9.05753333 Z" id="Path-17-Copy"></path>
                    </g>
                    <use id="Path-19" stroke="#1D6585" mask="url(#mask-6)" stroke-width="4" xlink:href="#path-5"></use>
                    <use id="Path-19-Copy" stroke="#1D6585" mask="url(#mask-8)" stroke-width="4" transform="translate(39.910579, 70.961413) scale(-1, 1) translate(-39.910579, -70.961413) " xlink:href="#path-7"></use>
                </g>
            </g>
        </g>
    </g>
</svg>