<?xml version="1.0" encoding="UTF-8" standalone="no"?>
<svg width="1190px" height="10px" viewBox="0 0 1190 10" version="1.1" xmlns="http://www.w3.org/2000/svg" xmlns:xlink="http://www.w3.org/1999/xlink">
    <!-- Generator: Sketch 3.6.1 (26313) - http://www.bohemiancoding.com/sketch -->
    <title>Group Copy 2</title>
    <desc>Created with Sketch.</desc>
    <defs></defs>
    <g id="HOME" stroke="none" stroke-width="1" fill="none" fill-rule="evenodd" opacity="0.200000003">
        <g transform="translate(-126.000000, -40.000000)" id="Group-Copy-2" fill="#FFFFFF">
            <g transform="translate(126.000000, 40.000000)">
                <path d="M40,0 L50,10 L30,10 L40,0 Z" id="Rectangle-71"></path>
                <path d="M100,0 L110,10 L90,10 L100,0 Z" id="Rectangle-71-Copy-4"></path>
                <path d="M70,0 L80,10 L60,10 L70,0 Z" id="Rectangle-71-Copy"></path>
                <path d="M130,0 L140,10 L120,10 L130,0 Z" id="Rectangle-71-Copy-5"></path>
                <path d="M10,0 L20,10 L0,10 L10,0 Z" id="Rectangle-71-Copy-9"></path>
                <path d="M55,0 L65,10 L45,10 L55,0 Z" id="Rectangle-71-Copy-2" transform="translate(55.000000, 5.000000) rotate(-180.000000) translate(-55.000000, -5.000000) "></path>
                <path d="M85,0 L95,10 L75,10 L85,0 Z" id="Rectangle-71-Copy-3" transform="translate(85.000000, 5.000000) rotate(-180.000000) translate(-85.000000, -5.000000) "></path>
                <path d="M160,0 L170,10 L150,10 L160,0 Z" id="Rectangle-71"></path>
                <path d="M220,0 L230,10 L210,10 L220,0 Z" id="Rectangle-71-Copy-4"></path>
                <path d="M190,0 L200,10 L180,10 L190,0 Z" id="Rectangle-71-Copy"></path>
                <path d="M250,0 L260,10 L240,10 L250,0 Z" id="Rectangle-71-Copy-5"></path>
                <path d="M235,0 L245,10 L225,10 L235,0 Z" id="Rectangle-71-Copy-6" transform="translate(235.000000, 5.000000) rotate(-180.000000) translate(-235.000000, -5.000000) "></path>
                <path d="M205,0 L215,10 L195,10 L205,0 Z" id="Rectangle-71-Copy-3" transform="translate(205.000000, 5.000000) rotate(-180.000000) translate(-205.000000, -5.000000) "></path>
                <path d="M280,0 L290,10 L270,10 L280,0 Z" id="Rectangle-71"></path>
                <path d="M310,0 L320,10 L300,10 L310,0 Z" id="Rectangle-71-Copy"></path>
                <path d="M340,0 L350,10 L330,10 L340,0 Z" id="Rectangle-71"></path>
                <path d="M400,0 L410,10 L390,10 L400,0 Z" id="Rectangle-71-Copy-4"></path>
                <path d="M370,0 L380,10 L360,10 L370,0 Z" id="Rectangle-71-Copy"></path>
                <path d="M430,0 L440,10 L420,10 L430,0 Z" id="Rectangle-71-Copy-5"></path>
                <path d="M355,0 L365,10 L345,10 L355,0 Z" id="Rectangle-71-Copy-2" transform="translate(355.000000, 5.000000) rotate(-180.000000) translate(-355.000000, -5.000000) "></path>
                <path d="M385,0 L395,10 L375,10 L385,0 Z" id="Rectangle-71-Copy-3" transform="translate(385.000000, 5.000000) rotate(-180.000000) translate(-385.000000, -5.000000) "></path>
                <path d="M460,0 L470,10 L450,10 L460,0 Z" id="Rectangle-71"></path>
                <path d="M730,0 L740,10 L720,10 L730,0 Z" id="Rectangle-71-Copy-5"></path>
                <path d="M760,0 L770,10 L750,10 L760,0 Z" id="Rectangle-71"></path>
                <path d="M820,0 L830,10 L810,10 L820,0 Z" id="Rectangle-71-Copy-4"></path>
                <path d="M790,0 L800,10 L780,10 L790,0 Z" id="Rectangle-71-Copy"></path>
                <path d="M850,0 L860,10 L840,10 L850,0 Z" id="Rectangle-71-Copy-5"></path>
                <path d="M835,0 L845,10 L825,10 L835,0 Z" id="Rectangle-71-Copy-6" transform="translate(835.000000, 5.000000) rotate(-180.000000) translate(-835.000000, -5.000000) "></path>
                <path d="M805,0 L815,10 L795,10 L805,0 Z" id="Rectangle-71-Copy-3" transform="translate(805.000000, 5.000000) rotate(-180.000000) translate(-805.000000, -5.000000) "></path>
                <path d="M880,0 L890,10 L870,10 L880,0 Z" id="Rectangle-71"></path>
                <path d="M910,0 L920,10 L900,10 L910,0 Z" id="Rectangle-71-Copy"></path>
                <path d="M940,0 L950,10 L930,10 L940,0 Z" id="Rectangle-71"></path>
                <path d="M1000,0 L1010,10 L990,10 L1000,0 Z" id="Rectangle-71-Copy-4"></path>
                <path d="M970,0 L980,10 L960,10 L970,0 Z" id="Rectangle-71-Copy"></path>
                <path d="M1030,0 L1040,10 L1020,10 L1030,0 Z" id="Rectangle-71-Copy-5"></path>
                <path d="M955,0 L965,10 L945,10 L955,0 Z" id="Rectangle-71-Copy-2" transform="translate(955.000000, 5.000000) rotate(-180.000000) translate(-955.000000, -5.000000) "></path>
                <path d="M985,0 L995,10 L975,10 L985,0 Z" id="Rectangle-71-Copy-3" transform="translate(985.000000, 5.000000) rotate(-180.000000) translate(-985.000000, -5.000000) "></path>
                <path d="M1060,0 L1070,10 L1050,10 L1060,0 Z" id="Rectangle-71"></path>
                <path d="M1180,0 L1190,10 L1170,10 L1180,0 Z" id="Rectangle-71-Copy-8"></path>
                <path d="M1120,0 L1130,10 L1110,10 L1120,0 Z" id="Rectangle-71-Copy-4"></path>
                <path d="M1090,0 L1100,10 L1080,10 L1090,0 Z" id="Rectangle-71-Copy"></path>
                <path d="M1150,0 L1160,10 L1140,10 L1150,0 Z" id="Rectangle-71-Copy-5"></path>
                <path d="M1135,0 L1145,10 L1125,10 L1135,0 Z" id="Rectangle-71-Copy-6" transform="translate(1135.000000, 5.000000) rotate(-180.000000) translate(-1135.000000, -5.000000) "></path>
                <path d="M1105,0 L1115,10 L1095,10 L1105,0 Z" id="Rectangle-71-Copy-3" transform="translate(1105.000000, 5.000000) rotate(-180.000000) translate(-1105.000000, -5.000000) "></path>
            </g>
        </g>
    </g>
</svg>